<?xml version="1.0" encoding="UTF-8"?>
<svg id="Layer_2" data-name="Layer 2" xmlns="http://www.w3.org/2000/svg" viewBox="0 0 256 256">
  <defs>
    <style>
      .cls-1 {
        fill: #262522;
      }

      .cls-1, .cls-2 {
        stroke-width: 0px;
      }

      .cls-2 {
        fill: #a7c957;
      }
    </style>
  </defs>
  <g id="Layer_1-2" data-name="Layer 1">
    <g>
      <path class="cls-2" d="M256,128c0,17.67-3.58,34.51-10.06,49.82-19.43,45.94-64.92,78.18-117.94,78.18C57.31,256,0,198.69,0,128c0-17.67,3.58-34.51,10.06-49.82C29.49,32.24,74.98,0,128,0c17.67,0,34.51,3.58,49.82,10.06,45.94,19.43,78.18,64.92,78.18,117.94Z"/>
      <path class="cls-1" d="M168.83,144.6c-2.75,9.55-4.12,14.98-4.12,16.29,0,.81.25,1.5.75,2.06.5.56,1.06.84,1.69.84,1.12,0,2.25-.47,3.37-1.41,2.87-2.37,6.27-6.58,10.21-12.64l3.09,1.78c-5.74,9.61-11.46,16.42-17.14,20.41-3.87,2.75-8.27,4.12-13.2,4.12-3.94,0-7.02-1.06-9.27-3.18s-3.37-4.83-3.37-8.15c0-2.62.81-6.68,2.43-12.17l15.54-52.25h-26.59l-10.68,41.67c-5.37,21.04-10.38,35.96-15.03,44.76-4.65,8.8-10.31,15.69-17,20.65-6.68,4.96-14.08,7.45-22.19,7.45-5.68,0-9.79-1-12.31-3-2.53-2-3.79-4.4-3.79-7.21,0-2.56,1.02-4.78,3.04-6.65,2.03-1.87,4.67-2.81,7.91-2.81,2.81,0,5.01.73,6.6,2.2,1.59,1.46,2.39,3.29,2.39,5.48,0,1.87-.59,3.5-1.78,4.87l-.94,1.31c0,.31.12.56.37.75.56.37,1.25.56,2.06.56,2.62,0,5.49-2.43,8.62-7.3,1.93-2.93,4.84-11.92,8.71-26.97l19.57-75.76h-13.01l2.9-11.05c5.24.13,8.97-.48,11.19-1.83,2.22-1.34,4.48-4.29,6.79-8.85,6.43-12.8,12.8-21.45,19.1-25.94,8.62-6.05,18.63-9.09,30.06-9.09,7.74,0,13.37,1.37,16.9,4.12,3.52,2.75,5.29,6.02,5.29,9.83,0,3.12-1.04,5.73-3.14,7.82-2.09,2.09-4.64,3.14-7.63,3.14s-5.3-.87-7.3-2.62c-2-1.75-3-3.68-3-5.81,0-1.68.5-3.52,1.5-5.52.75-1.37,1.12-2.4,1.12-3.09,0-.87-.47-1.72-1.41-2.53-1-.75-2.5-1.12-4.49-1.12-3.74,0-6.96.97-9.64,2.9-3.81,2.68-6.99,6.49-9.55,11.42-1.69,3.18-4.12,10.58-7.31,22.2l-1.41,4.96h24.06c8.62,0,15.92-.87,21.91-2.62h4.68l-16.57,57.97Z"/>
    </g>
  </g>
</svg>