<?xml version="1.0" encoding="UTF-8"?>
<svg id="a" data-name="Layer 1" xmlns="http://www.w3.org/2000/svg" width="840" height="840" viewBox="0 0 840 840">
  <path d="m581.278,38.212c-49.57-20.97-104.07-32.56-161.28-32.56C248.368,5.652,101.108,110.002,38.218,258.722c-20.97,49.56-32.57,104.07-32.57,161.28,0,228.83,185.51,414.35,414.35,414.35,171.63,0,318.89-104.36,381.79-253.07,20.97-49.57,32.56-104.07,32.56-161.28,0-171.63-104.35-318.89-253.07-381.79Zm-34.58,125.74c-3.23-2.42-8.08-3.63-14.55-3.63-12.12,0-22.53,3.13-31.22,9.4-12.33,8.68-22.64,21.01-30.91,36.97-5.47,10.31-13.35,34.25-23.65,71.85l-4.55,16.06h77.9c27.89,0,51.53-2.83,70.94-8.49h15.15l-53.65,187.64c-8.9,30.91-13.34,48.5-13.34,52.74,0,2.63.81,4.85,2.42,6.67,1.62,1.82,3.44,2.73,5.46,2.73,3.64,0,7.28-1.52,10.92-4.55,9.29-7.68,20.3-21.31,33.04-40.92l10,5.76c-18.59,31.12-37.09,53.15-55.47,66.08-12.53,8.89-26.78,13.34-42.74,13.34-12.74,0-22.74-3.44-30.01-10.31s-10.91-15.65-10.91-26.37c0-8.49,2.62-21.62,7.88-39.41l50.31-169.14h-86.08l-34.56,134.89c-17.38,68.1-33.6,116.4-48.65,144.89-15.061,28.5-33.39,50.78-55.021,66.84-21.62,16.07-45.57,24.11-71.84,24.11-18.39,0-31.68-3.24-39.86-9.71-8.18-6.47-12.28-14.24-12.28-23.33,0-8.3,3.29-15.47,9.85-21.53,6.57-6.06,15.11-9.09,25.62-9.09,9.1,0,16.22,2.37,21.37,7.12,5.15,4.74,7.73,10.66,7.73,17.73,0,6.06-1.92,11.32-5.76,15.76l-3.03,4.25c0,1.01.4,1.82,1.21,2.42,1.82,1.21,4.04,1.82,6.67,1.82,8.48,0,17.78-7.88,27.89-23.64,6.26-9.5,15.66-38.6,28.19-87.3l63.35-245.23h-42.13l9.4-35.77c16.97.41,29.04-1.56,36.22-5.91,7.17-4.35,14.49-13.89,21.98-28.65,20.81-41.42,41.42-69.42,61.83-83.96,27.89-19.6,60.32-29.41,97.31-29.41,25.05,0,43.29,4.45,54.71,13.34,11.41,8.9,17.12,19.5,17.12,31.83,0,10.11-3.38,18.54-10.15,25.31-6.77,6.78-15.01,10.16-24.71,10.16-9.29,0-17.17-2.83-23.64-8.49-6.47-5.66-9.7-11.92-9.7-18.8,0-5.45,1.62-11.41,4.85-17.88,2.43-4.44,3.64-7.77,3.64-10,0-2.83-1.52-5.56-4.55-8.19Z" fill="#fff3e1"/>
</svg>